<mxfile host="app.diagrams.net" modified="2020-10-25T13:29:22.742Z" agent="5.0 (Macintosh; Intel Mac OS X 10_15_7) AppleWebKit/537.36 (KHTML, like Gecko) Chrome/88.0.4292.2 Safari/537.36" etag="ghXLQJxZ2DsoPQsrA1XW" version="13.8.2" type="github">
  <diagram name="Page-1" id="929967ad-93f9-6ef4-fab6-5d389245f69c">
    <mxGraphModel dx="1395" dy="872" grid="1" gridSize="10" guides="1" tooltips="1" connect="1" arrows="1" fold="1" page="1" pageScale="1.5" pageWidth="1169" pageHeight="826" background="none" math="0" shadow="0">
      <root>
        <mxCell id="0" style=";html=1;" />
        <mxCell id="1" style=";html=1;" parent="0" />
        <mxCell id="1672d66443f91eb5-21" style="edgeStyle=none;rounded=0;html=1;dashed=1;endArrow=none;endFill=0;jettySize=auto;orthogonalLoop=1;" parent="1" target="1672d66443f91eb5-9" edge="1">
          <mxGeometry relative="1" as="geometry">
            <mxPoint x="1137.4166666666665" y="605" as="sourcePoint" />
          </mxGeometry>
        </mxCell>
        <mxCell id="1672d66443f91eb5-14" style="edgeStyle=orthogonalEdgeStyle;rounded=0;html=1;endArrow=circlePlus;endFill=0;jettySize=auto;orthogonalLoop=1;" parent="1" source="1672d66443f91eb5-10" edge="1">
          <mxGeometry relative="1" as="geometry">
            <Array as="points">
              <mxPoint x="477" y="755" />
              <mxPoint x="477" y="755" />
            </Array>
            <mxPoint x="477" y="615" as="targetPoint" />
          </mxGeometry>
        </mxCell>
        <mxCell id="1672d66443f91eb5-23" value="Title" style="text;strokeColor=none;fillColor=none;html=1;fontSize=24;fontStyle=1;verticalAlign=middle;align=center;" parent="1" vertex="1">
          <mxGeometry x="120" y="40" width="1510" height="40" as="geometry" />
        </mxCell>
        <mxCell id="X2bjHj2xkLFCtzn5EzGy-1" value="&lt;h2 style=&quot;margin: 0px 0px 0.3em ; padding: 0px ; list-style: none ; font-weight: 500 ; line-height: 1.35 ; font-family: &amp;#34;pingfang sc&amp;#34; , &amp;#34;helvetica neue&amp;#34; , &amp;#34;verdana&amp;#34; , &amp;#34;microsoft yahei&amp;#34; , &amp;#34;hiragino sans gb&amp;#34; , &amp;#34;microsoft sans serif&amp;#34; , &amp;#34;wenquanyi micro hei&amp;#34; , sans-serif ; color: rgb(53 , 53 , 53) ; background-color: rgb(255 , 255 , 255)&quot;&gt;&lt;font style=&quot;font-size: 14px&quot;&gt;食堂就餐卡系统组件图&lt;/font&gt;&lt;/h2&gt;" style="text;html=1;resizable=0;autosize=1;align=center;verticalAlign=middle;points=[];fillColor=none;strokeColor=none;rounded=0;" vertex="1" parent="1">
          <mxGeometry x="317" y="265" width="160" height="30" as="geometry" />
        </mxCell>
        <mxCell id="X2bjHj2xkLFCtzn5EzGy-2" value="" style="rounded=0;whiteSpace=wrap;html=1;fillColor=none;" vertex="1" parent="1">
          <mxGeometry x="320" y="295" width="670" height="485" as="geometry" />
        </mxCell>
        <mxCell id="X2bjHj2xkLFCtzn5EzGy-3" value="注册模块" style="shape=module;align=left;spacingLeft=20;align=center;verticalAlign=top;fillColor=none;" vertex="1" parent="1">
          <mxGeometry x="390" y="390" width="100" height="50" as="geometry" />
        </mxCell>
        <mxCell id="X2bjHj2xkLFCtzn5EzGy-4" value="余额管理" style="shape=module;align=left;spacingLeft=20;align=center;verticalAlign=top;fillColor=none;" vertex="1" parent="1">
          <mxGeometry x="600" y="390" width="100" height="50" as="geometry" />
        </mxCell>
        <mxCell id="X2bjHj2xkLFCtzn5EzGy-5" value="消费记录" style="shape=module;align=left;spacingLeft=20;align=center;verticalAlign=top;fillColor=none;" vertex="1" parent="1">
          <mxGeometry x="810" y="390" width="100" height="50" as="geometry" />
        </mxCell>
        <mxCell id="X2bjHj2xkLFCtzn5EzGy-8" style="edgeStyle=none;rounded=0;orthogonalLoop=1;jettySize=auto;html=1;exitX=0.5;exitY=0;exitDx=0;exitDy=0;dashed=1;endArrow=open;endFill=0;" edge="1" parent="1" source="X2bjHj2xkLFCtzn5EzGy-6" target="X2bjHj2xkLFCtzn5EzGy-7">
          <mxGeometry relative="1" as="geometry" />
        </mxCell>
        <mxCell id="X2bjHj2xkLFCtzn5EzGy-6" value="客户端组件" style="shape=module;align=left;spacingLeft=20;align=center;verticalAlign=top;fillColor=none;" vertex="1" parent="1">
          <mxGeometry x="605" y="650" width="100" height="50" as="geometry" />
        </mxCell>
        <mxCell id="X2bjHj2xkLFCtzn5EzGy-7" value="通信控制" style="shape=module;align=left;spacingLeft=20;align=center;verticalAlign=top;fillColor=none;" vertex="1" parent="1">
          <mxGeometry x="605" y="520" width="100" height="50" as="geometry" />
        </mxCell>
        <mxCell id="X2bjHj2xkLFCtzn5EzGy-9" style="edgeStyle=none;rounded=0;orthogonalLoop=1;jettySize=auto;html=1;exitX=0.5;exitY=0;exitDx=0;exitDy=0;dashed=1;endArrow=open;endFill=0;entryX=0.5;entryY=1;entryDx=0;entryDy=0;" edge="1" parent="1" source="X2bjHj2xkLFCtzn5EzGy-7" target="X2bjHj2xkLFCtzn5EzGy-3">
          <mxGeometry relative="1" as="geometry">
            <mxPoint x="665" y="660" as="sourcePoint" />
            <mxPoint x="665" y="580" as="targetPoint" />
          </mxGeometry>
        </mxCell>
        <mxCell id="X2bjHj2xkLFCtzn5EzGy-10" style="edgeStyle=none;rounded=0;orthogonalLoop=1;jettySize=auto;html=1;dashed=1;endArrow=open;endFill=0;entryX=0.5;entryY=1;entryDx=0;entryDy=0;" edge="1" parent="1" target="X2bjHj2xkLFCtzn5EzGy-4">
          <mxGeometry relative="1" as="geometry">
            <mxPoint x="650" y="520" as="sourcePoint" />
            <mxPoint x="450" y="450" as="targetPoint" />
          </mxGeometry>
        </mxCell>
        <mxCell id="X2bjHj2xkLFCtzn5EzGy-11" style="edgeStyle=none;rounded=0;orthogonalLoop=1;jettySize=auto;html=1;dashed=1;endArrow=open;endFill=0;entryX=0.5;entryY=1;entryDx=0;entryDy=0;exitX=0.5;exitY=0;exitDx=0;exitDy=0;" edge="1" parent="1" source="X2bjHj2xkLFCtzn5EzGy-7" target="X2bjHj2xkLFCtzn5EzGy-5">
          <mxGeometry relative="1" as="geometry">
            <mxPoint x="660" y="530" as="sourcePoint" />
            <mxPoint x="660" y="450" as="targetPoint" />
          </mxGeometry>
        </mxCell>
      </root>
    </mxGraphModel>
  </diagram>
</mxfile>
